<svg id="logo" xmlns="http://www.w3.org/2000/svg" viewBox="0 0 226.32 230.69"><defs><style>.cls-1,.cls-2{fill:#1645ff;}.cls-1{opacity:0.9;}</style></defs><title>logo</title><path class="cls-1" d="M236.91,191.74c-82.92,0-150.13-40-150.13-89.37S154,13,236.91,13" transform="translate(-10.58 -13)"/><path class="cls-1" d="M11.72,13c82.91,0,150.12,40,150.12,89.37S94.63,191.74,11.72,191.74" transform="translate(-10.58 -13)"/><path class="cls-2" d="M43.38,205.83l-6.25,29.3H28.9l2.38-11.28H21.2l-2.39,11.28H10.58l6.26-29.3h8.23l-2.31,10.7H32.85l2.3-10.7Z" transform="translate(-10.58 -13)"/><path class="cls-2" d="M63,231.3a6.18,6.18,0,0,0,0,3.83H55.44a7.23,7.23,0,0,1-.12-2,9.49,9.49,0,0,1-6.75,2.47c-4.85,0-7.78-2.59-6.83-7.08.78-3.62,3.21-5.59,9.8-6.17l3.45-.29c2.1-.16,2.64-.53,2.88-1.56s-.33-1.89-2.43-1.89-3.08.45-3.49,2.26H44.46C45.65,215.7,49,213.4,56,213.4c7.28,0,10.29,2.72,9.14,8.19Zm-6.46-4.53.24-1.23a3.16,3.16,0,0,1-2,.82l-2.47.25c-1.65.16-2.64.82-2.88,2.1s.61,2.06,2.3,2.06A4.79,4.79,0,0,0,56.56,226.77Z" transform="translate(-10.58 -13)"/><path class="cls-2" d="M67.59,223.23c1.23-5.76,5.84-9.87,12.92-9.87,7.49,0,11.28,4.52,9.59,12.43-1.19,5.63-6,9.83-12.88,9.83C69.77,235.62,65.9,231.05,67.59,223.23Zm15.06,1.53c.74-3.58-.49-5.43-2.84-5.43s-4,1.56-4.73,5c-.78,3.63.7,5.4,2.84,5.4S82,228.13,82.65,224.76Z" transform="translate(-10.58 -13)"/><path class="cls-2" d="M136.24,205.83,130,235.13h-8.23l2.39-11.28H114.06l-2.39,11.28h-8.23l6.25-29.3h8.23l-2.3,10.7H125.7l2.31-10.7Z" transform="translate(-10.58 -13)"/><path class="cls-2" d="M160.28,213.89l-4.53,21.24h-7.41l.58-2.8a9.71,9.71,0,0,1-7.2,3.29c-4.33,0-6.88-3-5.4-9.79l2.6-11.94h7.57L144,225.66c-.49,2.22.37,3.54,2.26,3.54s3.42-1,3.95-3.54l2.51-11.77Z" transform="translate(-10.58 -13)"/><path class="cls-2" d="M181.64,231.3a6.18,6.18,0,0,0,0,3.83h-7.61a6.8,6.8,0,0,1-.13-2,9.49,9.49,0,0,1-6.75,2.47c-4.85,0-7.77-2.59-6.83-7.08.78-3.62,3.21-5.59,9.8-6.17l3.45-.29c2.1-.16,2.64-.53,2.88-1.56s-.33-1.89-2.42-1.89-3.09.45-3.5,2.26h-7.49c1.19-5.19,4.57-7.49,11.52-7.49,7.28,0,10.29,2.72,9.14,8.19Zm-6.46-4.53.24-1.23a3.16,3.16,0,0,1-2,.82l-2.47.25c-1.65.16-2.64.82-2.88,2.1s.61,2.06,2.3,2.06A4.79,4.79,0,0,0,175.18,226.77Z" transform="translate(-10.58 -13)"/><path class="cls-2" d="M209,223.19l-2.59,11.94H198.8l2.51-11.77c.5-2.22-.37-3.54-2.26-3.54s-3.42,1-4,3.54l-2.51,11.77H185l4.52-21.24H197l-.58,2.8a9.72,9.72,0,0,1,7.21-3.29C207.9,213.4,210.45,216.36,209,223.19Z" transform="translate(-10.58 -13)"/><path class="cls-2" d="M236.5,213.89l-4.44,20.83c-1.28,6.05-4.24,9-11.85,9-7.82,0-10.33-3.54-10-8.15h7.73c0,1.81.91,2.59,2.88,2.59,2.18,0,3.25-1.27,3.87-4.32l.25-1.32A6.9,6.9,0,0,1,220,234.3c-5.88,0-9.05-4.4-7.49-11.64,1.19-5.6,4.77-9.26,10.25-9.26,3,0,4.81,1.23,5.76,3.17l.58-2.68ZM223,228.38c2.39,0,3.79-1.57,4.41-4.53s-.54-4.52-2.93-4.52-3.82,1.48-4.44,4.32C219.3,226.81,220.58,228.38,223,228.38Z" transform="translate(-10.58 -13)"/></svg>